<svg width="387.65" height="71.4" viewBox="0 0 387.65 71.4" xmlns="http://www.w3.org/2000/svg"><g id="svgGroup" stroke-linecap="round" fill-rule="evenodd" font-size="9pt" stroke="#ffffff" stroke-width="0.25mm" fill="#ffffff" style="stroke:#ffffff;stroke-width:0.25mm;fill:#ffffff"><path d="M 371.85 71.4 L 327.35 13 L 327.35 55.8 Q 327.35 58.932 327.486 60.875 A 28.425 28.425 0 0 0 327.55 61.65 A 7.737 7.737 0 0 0 327.775 62.92 Q 328.086 64.07 328.75 64.8 Q 329.456 65.506 330.711 66.063 A 12.78 12.78 0 0 0 331.85 66.5 Q 333.95 67.2 337.85 67.6 Q 338.05 69.2 337.85 70.8 Q 334.85 70.8 331.2 70.7 A 324.022 324.022 0 0 0 328.624 70.639 Q 326.613 70.6 325.05 70.6 A 159.975 159.975 0 0 0 323.013 70.614 Q 321.181 70.638 318.9 70.7 Q 315.25 70.8 312.35 70.8 Q 312.05 69.3 312.35 67.6 Q 315.317 67.188 317.197 66.81 A 33.771 33.771 0 0 0 317.95 66.65 A 9.267 9.267 0 0 0 319.067 66.329 Q 319.609 66.133 320.035 65.884 A 3.663 3.663 0 0 0 320.85 65.25 Q 321.75 64.3 322 62.4 Q 322.226 60.684 322.248 57.745 A 86.665 86.665 0 0 0 322.25 57.1 L 322.25 16.1 A 104.045 104.045 0 0 0 322.226 13.766 Q 322.179 11.717 322.046 10.261 A 27.435 27.435 0 0 0 322 9.8 A 9.385 9.385 0 0 0 321.766 8.475 Q 321.594 7.808 321.327 7.277 A 4.069 4.069 0 0 0 320.7 6.35 A 4.714 4.714 0 0 0 319.571 5.459 Q 318.709 4.959 317.5 4.65 A 24.291 24.291 0 0 0 315.995 4.321 Q 314.163 3.975 311.55 3.7 Q 311.45 2.2 311.55 0.6 Q 314.65 0.6 318.15 0.7 Q 321.65 0.8 325.15 0.8 L 327.9 0.8 Q 329.834 0.8 331.361 0.726 A 46.914 46.914 0 0 0 331.85 0.7 L 372.45 54.1 L 372.45 15.7 Q 372.45 12.568 372.348 10.591 A 40.116 40.116 0 0 0 372.3 9.8 Q 372.15 7.7 371.05 6.7 Q 369.099 4.656 362.056 3.993 A 58.482 58.482 0 0 0 360.95 3.9 Q 360.65 2.2 360.95 0.7 A 178.689 178.689 0 0 1 362.48 0.707 Q 363.162 0.713 363.917 0.724 A 342.03 342.03 0 0 1 365.5 0.75 Q 368.15 0.8 370.65 0.85 Q 373.15 0.9 374.75 0.9 A 148.758 148.758 0 0 0 376.075 0.894 Q 378.175 0.875 380.95 0.8 Q 384.13 0.714 386.719 0.702 A 178.159 178.159 0 0 1 387.55 0.7 Q 387.75 2.2 387.55 3.8 Q 383.857 4.262 381.763 4.812 A 13.643 13.643 0 0 0 380.65 5.15 A 4.581 4.581 0 0 0 379.347 5.85 A 3.65 3.65 0 0 0 378.05 7.9 A 11.819 11.819 0 0 0 377.82 9.139 Q 377.55 11.095 377.55 14.4 L 377.55 70.9 A 14.992 14.992 0 0 1 376.857 71.02 Q 376.074 71.138 375.004 71.236 A 50.835 50.835 0 0 1 374.85 71.25 Q 373.389 71.379 372.224 71.397 A 24.027 24.027 0 0 1 371.85 71.4 Z M 23.75 39.1 L 21.15 38.8 L 21.15 58.3 A 78.341 78.341 0 0 0 21.17 60.111 Q 21.206 61.702 21.313 62.84 A 21.173 21.173 0 0 0 21.35 63.2 A 6.901 6.901 0 0 0 21.525 64.178 Q 21.654 64.67 21.852 65.055 A 2.716 2.716 0 0 0 22.4 65.8 A 3.24 3.24 0 0 0 23.134 66.307 Q 23.869 66.689 24.993 66.911 A 11.824 11.824 0 0 0 25.2 66.95 Q 27.15 67.3 30.65 67.6 Q 30.95 69.2 30.65 70.8 Q 29.275 70.8 27.522 70.776 A 382.761 382.761 0 0 1 25.85 70.75 L 20.25 70.65 Q 17.467 70.6 15.572 70.6 A 90.231 90.231 0 0 0 15.55 70.6 Q 13.94 70.6 11.45 70.64 A 510.528 510.528 0 0 0 10.85 70.65 L 5.05 70.75 A 407.238 407.238 0 0 1 3.002 70.78 Q 2.201 70.79 1.488 70.795 A 195.973 195.973 0 0 1 0.15 70.8 Q -0.15 69.3 0.15 67.6 Q 3.769 67.298 5.853 66.968 A 22.803 22.803 0 0 0 7.05 66.75 A 5.071 5.071 0 0 0 8.092 66.416 Q 8.7 66.139 9.092 65.713 A 2.561 2.561 0 0 0 9.65 64.75 A 7.279 7.279 0 0 0 9.88 63.782 Q 10.064 62.736 10.122 61.18 A 42.075 42.075 0 0 0 10.15 59.6 L 10.15 13 Q 10.15 8.9 9.6 7.1 Q 9.05 5.3 6.95 4.7 Q 4.85 4.1 0.15 3.8 Q -0.15 2.3 0.15 0.6 Q 1.85 0.6 4.469 0.64 A 562.835 562.835 0 0 1 5.1 0.65 Q 8.15 0.7 11.1 0.75 Q 13.997 0.799 15.399 0.8 A 80.94 80.94 0 0 0 15.45 0.8 Q 17.06 0.8 19.511 0.76 A 485.436 485.436 0 0 0 20.1 0.75 Q 22.95 0.7 25.8 0.6 Q 27.982 0.523 29.431 0.505 A 66.476 66.476 0 0 1 30.25 0.5 A 41.212 41.212 0 0 1 38.421 1.285 A 35.816 35.816 0 0 1 42 2.2 Q 47.45 3.9 50.8 7.75 A 13.094 13.094 0 0 1 53.594 13.246 Q 54.081 15.177 54.141 17.445 A 24.454 24.454 0 0 1 54.15 18.1 Q 54.15 24.5 50.3 29.5 Q 47.072 33.693 40.714 36.128 A 37.031 37.031 0 0 1 38.15 37 L 38.15 37.3 Q 39.505 38.384 41.186 40.774 A 37.739 37.739 0 0 1 41.55 41.3 L 52.05 56.5 Q 54.65 60.2 56.4 62.3 Q 57.731 63.897 58.975 64.886 A 10.511 10.511 0 0 0 59.75 65.45 A 9.689 9.689 0 0 0 62.431 66.659 A 11.731 11.731 0 0 0 63.45 66.9 Q 64.877 67.172 66.813 67.398 A 86.402 86.402 0 0 0 68.75 67.6 Q 69.05 69.2 68.75 70.8 Q 66.861 70.8 64.083 70.751 A 526.607 526.607 0 0 1 64.05 70.75 Q 61.25 70.7 58.65 70.65 Q 56.05 70.6 54.45 70.6 Q 53.35 70.6 52.439 70.624 A 50.362 50.362 0 0 0 51.65 70.65 A 51.853 51.853 0 0 1 50.694 70.68 Q 50.272 70.69 49.811 70.695 A 90.829 90.829 0 0 1 48.85 70.7 L 30.35 43.4 Q 29.016 41.36 27.929 40.459 A 4.226 4.226 0 0 0 27.35 40.05 Q 26.05 39.3 23.75 39.1 Z M 177.55 14.7 L 162.85 40.9 L 162.85 58.3 A 78.341 78.341 0 0 0 162.87 60.111 Q 162.906 61.702 163.013 62.84 A 21.173 21.173 0 0 0 163.05 63.2 A 6.487 6.487 0 0 0 163.23 64.181 Q 163.517 65.238 164.15 65.8 A 3.504 3.504 0 0 0 164.919 66.307 Q 165.684 66.689 166.838 66.911 A 12.515 12.515 0 0 0 167.05 66.95 Q 169.05 67.3 172.75 67.6 Q 173.05 69.2 172.75 70.8 Q 171.306 70.8 169.484 70.776 A 406.969 406.969 0 0 1 167.75 70.75 Q 164.85 70.7 162 70.65 Q 159.219 70.601 157.342 70.6 A 147.084 147.084 0 0 0 157.25 70.6 Q 155.35 70.6 152.55 70.65 Q 149.75 70.7 146.85 70.75 Q 144.856 70.784 143.241 70.795 A 209.652 209.652 0 0 1 141.85 70.8 Q 141.663 69.394 141.827 67.812 A 15.465 15.465 0 0 1 141.85 67.6 Q 146.27 67.14 148.401 66.722 A 20.584 20.584 0 0 0 148.75 66.65 A 5.071 5.071 0 0 0 149.792 66.316 Q 150.4 66.039 150.792 65.613 A 2.561 2.561 0 0 0 151.35 64.65 A 7.417 7.417 0 0 0 151.586 63.657 Q 151.85 62.143 151.85 59.6 L 151.85 41.9 L 136.65 14.1 Q 134.85 10.7 133.65 8.75 A 18.113 18.113 0 0 0 132.905 7.629 Q 132.498 7.066 132.097 6.621 A 7.608 7.608 0 0 0 131.3 5.85 A 6.475 6.475 0 0 0 129.412 4.777 A 8.103 8.103 0 0 0 128.5 4.5 Q 127.01 4.139 124.499 3.859 A 70.044 70.044 0 0 0 123.95 3.8 Q 123.75 2.2 123.95 0.6 A 281.085 281.085 0 0 1 131.231 0.697 A 304.956 304.956 0 0 1 131.35 0.7 Q 135.15 0.8 138.85 0.8 Q 142.05 0.8 145.95 0.7 A 301.909 301.909 0 0 1 151.631 0.606 A 267.374 267.374 0 0 1 153.45 0.6 Q 153.638 2.006 153.473 3.588 A 15.465 15.465 0 0 1 153.45 3.8 Q 149.15 4.2 147.35 4.75 Q 146.401 5.04 145.953 5.566 A 1.689 1.689 0 0 0 145.55 6.7 A 2.419 2.419 0 0 0 145.604 7.181 Q 145.704 7.672 145.992 8.317 A 9.941 9.941 0 0 0 146.1 8.55 Q 146.65 9.7 147.55 11.4 L 160.65 35.9 L 173.85 11.5 Q 175.438 8.588 175.625 7.311 A 2.165 2.165 0 0 0 175.65 7 A 1.771 1.771 0 0 0 174.788 5.454 Q 174.467 5.24 174.026 5.082 A 5.431 5.431 0 0 0 173.6 4.95 Q 171.567 4.405 166.632 3.81 A 165.558 165.558 0 0 0 166.55 3.8 A 14.314 14.314 0 0 1 166.452 2.363 Q 166.437 1.45 166.55 0.6 Q 167.981 0.6 170.133 0.64 A 369.155 369.155 0 0 1 170.65 0.65 Q 173.15 0.7 175.6 0.75 Q 177.928 0.798 179.489 0.8 A 106.535 106.535 0 0 0 179.65 0.8 Q 182.85 0.8 185.6 0.7 A 150.91 150.91 0 0 1 189.174 0.614 A 180.243 180.243 0 0 1 191.45 0.6 Q 191.65 2.2 191.45 3.8 Q 189.547 3.997 188.118 4.237 A 26.762 26.762 0 0 0 186.75 4.5 A 7.919 7.919 0 0 0 184.789 5.204 A 6.882 6.882 0 0 0 183.65 5.95 A 9.895 9.895 0 0 0 182.661 6.878 Q 182.191 7.379 181.708 8.004 A 22.066 22.066 0 0 0 180.95 9.05 Q 179.55 11.1 177.55 14.7 Z M 239.55 14.7 L 224.85 40.9 L 224.85 58.3 A 78.341 78.341 0 0 0 224.87 60.111 Q 224.906 61.702 225.013 62.84 A 21.173 21.173 0 0 0 225.05 63.2 A 6.487 6.487 0 0 0 225.23 64.181 Q 225.517 65.238 226.15 65.8 A 3.504 3.504 0 0 0 226.919 66.307 Q 227.684 66.689 228.838 66.911 A 12.515 12.515 0 0 0 229.05 66.95 Q 231.05 67.3 234.75 67.6 Q 235.05 69.2 234.75 70.8 Q 233.306 70.8 231.484 70.776 A 406.969 406.969 0 0 1 229.75 70.75 Q 226.85 70.7 224 70.65 Q 221.219 70.601 219.342 70.6 A 147.084 147.084 0 0 0 219.25 70.6 Q 217.35 70.6 214.55 70.65 Q 211.75 70.7 208.85 70.75 Q 206.856 70.784 205.241 70.795 A 209.652 209.652 0 0 1 203.85 70.8 Q 203.663 69.394 203.827 67.812 A 15.465 15.465 0 0 1 203.85 67.6 Q 208.27 67.14 210.401 66.722 A 20.584 20.584 0 0 0 210.75 66.65 A 5.071 5.071 0 0 0 211.792 66.316 Q 212.4 66.039 212.792 65.613 A 2.561 2.561 0 0 0 213.35 64.65 A 7.417 7.417 0 0 0 213.586 63.657 Q 213.85 62.143 213.85 59.6 L 213.85 41.9 L 198.65 14.1 Q 196.85 10.7 195.65 8.75 A 18.113 18.113 0 0 0 194.905 7.629 Q 194.498 7.066 194.097 6.621 A 7.608 7.608 0 0 0 193.3 5.85 A 6.475 6.475 0 0 0 191.412 4.777 A 8.103 8.103 0 0 0 190.5 4.5 Q 189.01 4.139 186.499 3.859 A 70.044 70.044 0 0 0 185.95 3.8 Q 185.75 2.2 185.95 0.6 A 281.085 281.085 0 0 1 193.231 0.697 A 304.956 304.956 0 0 1 193.35 0.7 Q 197.15 0.8 200.85 0.8 Q 204.05 0.8 207.95 0.7 A 301.909 301.909 0 0 1 213.631 0.606 A 267.374 267.374 0 0 1 215.45 0.6 Q 215.638 2.006 215.473 3.588 A 15.465 15.465 0 0 1 215.45 3.8 Q 211.15 4.2 209.35 4.75 Q 208.401 5.04 207.953 5.566 A 1.689 1.689 0 0 0 207.55 6.7 A 2.419 2.419 0 0 0 207.604 7.181 Q 207.704 7.672 207.992 8.317 A 9.941 9.941 0 0 0 208.1 8.55 Q 208.65 9.7 209.55 11.4 L 222.65 35.9 L 235.85 11.5 Q 237.438 8.588 237.625 7.311 A 2.165 2.165 0 0 0 237.65 7 A 1.771 1.771 0 0 0 236.788 5.454 Q 236.467 5.24 236.026 5.082 A 5.431 5.431 0 0 0 235.6 4.95 Q 233.567 4.405 228.632 3.81 A 165.558 165.558 0 0 0 228.55 3.8 A 14.314 14.314 0 0 1 228.452 2.363 Q 228.437 1.45 228.55 0.6 Q 229.981 0.6 232.133 0.64 A 369.155 369.155 0 0 1 232.65 0.65 Q 235.15 0.7 237.6 0.75 Q 239.928 0.798 241.489 0.8 A 106.535 106.535 0 0 0 241.65 0.8 Q 244.85 0.8 247.6 0.7 A 150.91 150.91 0 0 1 251.174 0.614 A 180.243 180.243 0 0 1 253.45 0.6 Q 253.65 2.2 253.45 3.8 Q 251.547 3.997 250.118 4.237 A 26.762 26.762 0 0 0 248.75 4.5 A 7.919 7.919 0 0 0 246.789 5.204 A 6.882 6.882 0 0 0 245.65 5.95 A 9.895 9.895 0 0 0 244.661 6.878 Q 244.191 7.379 243.708 8.004 A 22.066 22.066 0 0 0 242.95 9.05 Q 241.55 11.1 239.55 14.7 Z M 76.05 56.2 L 97.65 0.8 A 9.769 9.769 0 0 1 98.699 0.488 Q 99.246 0.356 99.873 0.26 A 18.025 18.025 0 0 1 100.3 0.2 Q 101.85 0 102.95 0 L 124.45 57.1 Q 125.522 59.856 126.301 61.704 A 77.329 77.329 0 0 0 126.75 62.75 Q 127.331 64.073 127.995 64.917 A 4.999 4.999 0 0 0 128.75 65.7 A 5.616 5.616 0 0 0 130.222 66.557 A 7.729 7.729 0 0 0 131.55 66.95 A 26.71 26.71 0 0 0 132.739 67.164 Q 133.984 67.361 135.682 67.542 A 95.342 95.342 0 0 0 136.25 67.6 A 12.888 12.888 0 0 1 136.35 69.2 A 12.888 12.888 0 0 1 136.25 70.8 A 265.947 265.947 0 0 1 129.281 70.706 A 289.187 289.187 0 0 1 129.05 70.7 Q 125.35 70.6 121.65 70.6 Q 117.85 70.6 114 70.7 Q 110.15 70.8 106.35 70.8 Q 106.05 69.3 106.35 67.6 Q 111.25 67.1 113.15 66.65 Q 114.832 66.252 115.025 64.717 A 3.342 3.342 0 0 0 115.05 64.3 Q 115.05 63.5 114.75 62.5 Q 114.45 61.5 113.95 60 L 108.25 44.6 L 85.75 44.6 L 80.75 58.4 Q 80.124 60.1 79.778 61.279 A 22.712 22.712 0 0 0 79.7 61.55 Q 79.387 62.667 79.354 63.585 A 5.948 5.948 0 0 0 79.35 63.8 A 3.537 3.537 0 0 0 79.501 64.873 Q 79.85 65.97 81.002 66.42 A 3.799 3.799 0 0 0 81.4 66.55 Q 82.946 66.965 85.997 67.351 A 109.298 109.298 0 0 0 88.15 67.6 A 14.314 14.314 0 0 1 88.248 69.037 Q 88.263 69.95 88.15 70.8 Q 84.75 70.8 81.45 70.7 Q 78.15 70.6 74.75 70.6 Q 71.95 70.6 69.35 70.7 Q 66.75 70.8 63.75 70.8 Q 63.55 69.2 63.75 67.6 A 60.75 60.75 0 0 0 65.393 67.403 Q 67.027 67.182 68.174 66.918 A 17.803 17.803 0 0 0 68.25 66.9 A 7.033 7.033 0 0 0 70.136 66.171 A 6.205 6.205 0 0 0 71.15 65.45 A 7.2 7.2 0 0 0 72.036 64.508 Q 72.445 63.994 72.841 63.344 A 16.822 16.822 0 0 0 73.45 62.25 A 36.376 36.376 0 0 0 74.177 60.735 Q 75.019 58.881 76.05 56.2 Z M 251.45 56.2 L 273.05 0.8 A 9.769 9.769 0 0 1 274.099 0.488 Q 274.646 0.356 275.273 0.26 A 18.025 18.025 0 0 1 275.7 0.2 Q 277.25 0 278.35 0 L 299.85 57.1 Q 300.922 59.856 301.701 61.704 A 77.329 77.329 0 0 0 302.15 62.75 Q 302.731 64.073 303.395 64.917 A 4.999 4.999 0 0 0 304.15 65.7 A 5.616 5.616 0 0 0 305.622 66.557 A 7.729 7.729 0 0 0 306.95 66.95 A 26.71 26.71 0 0 0 308.139 67.164 Q 309.384 67.361 311.082 67.542 A 95.342 95.342 0 0 0 311.65 67.6 A 12.888 12.888 0 0 1 311.75 69.2 A 12.888 12.888 0 0 1 311.65 70.8 A 265.947 265.947 0 0 1 304.681 70.706 A 289.187 289.187 0 0 1 304.45 70.7 Q 300.75 70.6 297.05 70.6 Q 293.25 70.6 289.4 70.7 Q 285.55 70.8 281.75 70.8 Q 281.45 69.3 281.75 67.6 Q 286.65 67.1 288.55 66.65 Q 290.232 66.252 290.425 64.717 A 3.342 3.342 0 0 0 290.45 64.3 Q 290.45 63.5 290.15 62.5 Q 289.85 61.5 289.35 60 L 283.65 44.6 L 261.15 44.6 L 256.15 58.4 Q 255.524 60.1 255.178 61.279 A 22.712 22.712 0 0 0 255.1 61.55 Q 254.787 62.667 254.754 63.585 A 5.948 5.948 0 0 0 254.75 63.8 A 3.537 3.537 0 0 0 254.901 64.873 Q 255.25 65.97 256.402 66.42 A 3.799 3.799 0 0 0 256.8 66.55 Q 258.346 66.965 261.397 67.351 A 109.298 109.298 0 0 0 263.55 67.6 A 14.314 14.314 0 0 1 263.648 69.037 Q 263.663 69.95 263.55 70.8 Q 260.15 70.8 256.85 70.7 Q 253.55 70.6 250.15 70.6 Q 247.35 70.6 244.75 70.7 Q 242.15 70.8 239.15 70.8 Q 238.95 69.2 239.15 67.6 A 60.75 60.75 0 0 0 240.793 67.403 Q 242.427 67.182 243.574 66.918 A 17.803 17.803 0 0 0 243.65 66.9 A 7.033 7.033 0 0 0 245.536 66.171 A 6.205 6.205 0 0 0 246.55 65.45 A 7.2 7.2 0 0 0 247.436 64.508 Q 247.845 63.994 248.241 63.344 A 16.822 16.822 0 0 0 248.85 62.25 A 36.376 36.376 0 0 0 249.577 60.735 Q 250.419 58.881 251.45 56.2 Z M 21.15 5 L 21.15 34.7 Q 22.267 34.872 23.163 34.97 A 30.915 30.915 0 0 0 23.45 35 Q 24.45 35.1 25.35 35.1 A 24.595 24.595 0 0 0 30.433 34.606 Q 34.75 33.694 37.7 31.1 A 12.792 12.792 0 0 0 41.597 24.665 Q 42.168 22.557 42.24 20.03 A 25.836 25.836 0 0 0 42.25 19.3 Q 42.25 13.728 39.817 10.188 A 11.567 11.567 0 0 0 38.3 8.4 Q 34.998 5.223 29.076 4.702 A 27.689 27.689 0 0 0 26.65 4.6 A 25.476 25.476 0 0 0 25.837 4.614 Q 25.106 4.638 24.2 4.7 A 52.7 52.7 0 0 0 22.135 4.885 A 61.525 61.525 0 0 0 21.15 5 Z M 96.95 13.8 L 87.25 40.4 L 106.75 40.4 L 96.95 13.8 Z M 272.35 13.8 L 262.65 40.4 L 282.15 40.4 L 272.35 13.8 Z" vector-effect="non-scaling-stroke"/></g></svg>